<svg xmlns="http://www.w3.org/2000/svg" width="1200" height="630" viewBox="0 0 1200 630">
  <defs>
    <linearGradient id="bg" x1="0" y1="0" x2="1" y2="1">
      <stop offset="0%" stop-color="#15110d"/>
      <stop offset="55%" stop-color="#2b2219"/>
      <stop offset="100%" stop-color="#806a54"/>
    </linearGradient>
    <linearGradient id="accent" x1="0" y1="0" x2="1" y2="1">
      <stop offset="0%" stop-color="#f5eee4"/>
      <stop offset="100%" stop-color="#bd7652"/>
    </linearGradient>
  </defs>
  <rect width="1200" height="630" fill="url(#bg)"/>
  <rect x="70" y="70" width="1060" height="490" rx="38" fill="rgba(255,255,255,0.06)" stroke="rgba(255,255,255,0.18)" stroke-width="2"/>
  <g transform="translate(118 132)">
    <rect width="76" height="76" rx="20" fill="url(#accent)"/>
    <g fill="#15110d" transform="translate(18 23)">
      <rect width="40" height="6" rx="2"/>
      <rect y="14" width="31" height="6" rx="2"/>
      <rect y="28" width="37" height="6" rx="2"/>
    </g>
  </g>
  <text x="118" y="270" fill="#fff8ef" font-family="Inter, Arial, sans-serif" font-size="82" font-weight="800">Heavy Chain</text>
  <text x="122" y="348" fill="#eadbc8" font-family="Inter, Arial, sans-serif" font-size="34" font-weight="500">Apparel AI image generation workspace</text>
  <text x="122" y="410" fill="#c9b9a6" font-family="Inter, Arial, sans-serif" font-size="25">商品画像、着用イメージ、販促バナー、Canvas編集まで。</text>
  <g transform="translate(118 470)" fill="#fff8ef" font-family="Inter, Arial, sans-serif" font-size="22" font-weight="700">
    <rect width="176" height="48" rx="24" fill="rgba(255,255,255,0.12)"/>
    <text x="26" y="31">Generate</text>
    <rect x="196" width="142" height="48" rx="24" fill="rgba(255,255,255,0.12)"/>
    <text x="222" y="31">Gallery</text>
    <rect x="358" width="132" height="48" rx="24" fill="rgba(255,255,255,0.12)"/>
    <text x="386" y="31">Canvas</text>
  </g>
</svg>
